{"title":"The.Octagon.1980.DVDRip.AC3.XviD.ODiN","uid":5413193,"size":1565542882,"categoryP":"video","categoryS":"movies","magnet":"?xt=urn:btih:38f1fa7343e40c9c822bd3f9396645f32686aa91&amp;dn=The.Octagon.1980.DVDRip.AC3.XviD.ODiN&amp;tr=udp%3A%2F%2Ftracker.openbittorrent.com%3A80&amp;tr=udp%3A%2F%2Fopen.demonii.com%3A1337&amp;tr=udp%3A%2F%2Ftracker.coppersurfer.tk%3A6969&amp;tr=udp%3A%2F%2Fexodus.desync.com%3A6969","seeders":0,"leechers":1,"uploader":"snsdg","files":-1,"time":1267816968,"description":"In a world of choices, for one man there is no choice . . . he must face THE OCTAGON\n\nChuck Norris is Scott James, who must face the Ninja, the unholy masters of terror in . . .\n\nThe Ninja, unholy masters of terror. No one will admit they still exist\n\nOnly one man can stop them.\n\nNo-one will admit they still exist! Unholy masters of terror...\n\n\nGeneral\nComplete name                    : The.Octagon.1980.DVDRip.AC3.XviD.ODiN.avi\nFormat                           : AVI\nFormat/Info                      : Audio Video Interleave\nFile size                        : 1.46 GiB\nDuration                         : 1h 43mn\nOverall bit rate                 : 2 012 Kbps\nWriting application              : VirtualDubMod 1.5.10.2 (build 2540/release)\nWriting library                  : VirtualDubMod build 2540/release\n\nVideo\nID                               : 0\nFormat                           : MPEG-4 Visual\nFormat profile                   : Advanced Simple@L5\nFormat settings, BVOP            : Yes\nFormat settings, QPel            : No\nFormat settings, GMC             : No warppoints\nFormat settings, Matrix          : Custom\nMuxing mode                      : Packed bitstream\nCodec ID                         : XVID\nCodec ID/Hint                    : XviD\nDuration                         : 1h 43mn\nBit rate                         : 1 554 Kbps\nWidth                            : 608 pixels\nHeight                           : 464 pixels\nDisplay aspect ratio             : 4:3\nFrame rate                       : 23.976 fps\nResolution                       : 8 bits\nColorimetry                      : 4:2:0\nScan type                        : Progressive\nBits/(Pixel*Frame)               : 0.230\nStream size                      : 1.13 GiB (77%)\nWriting library                  : XviD 1.1.0 (UTC 2005-11-22)\n\nAudio\nID                               : 1\nFormat                           : AC-3\nFormat/Info                      : Audio Coding 3\nCodec ID                         : 2000\nDuration                         : 1h 43mn\nBit rate mode                    : Constant\nBit rate                         : 448 Kbps\nChannel(s)                       : 6 channels\nChannel positions                : Front: L C R, Surround: L R, LFE\nSampling rate                    : 48.0 KHz\nStream size                      : 332 MiB (22%)\nAlignment                        : Split accross interleaves\nInterleave, duration             : 42 ms (1.00 video frame)\nInterleave, preload duration     : 500 ms\n","torrent":{"xt":"urn:btih:38f1fa7343e40c9c822bd3f9396645f32686aa91","amp;dn":"The.Octagon.1980.DVDRip.AC3.XviD.ODiN","amp;tr":["udp%3A%2F%2Ftracker.openbittorrent.com%3A80","udp%3A%2F%2Fopen.demonii.com%3A1337","udp%3A%2F%2Ftracker.coppersurfer.tk%3A6969","udp%3A%2F%2Fexodus.desync.com%3A6969"],"infoHash":"38f1fa7343e40c9c822bd3f9396645f32686aa91","infoHashBuffer":{"type":"Buffer","data":[56,241,250,115,67,228,12,156,130,43,211,249,57,102,69,243,38,134,170,145]},"announce":[],"urlList":[]}}